<svg width="32" height="32" viewBox="0 0 32 32" fill="none" xmlns="http://www.w3.org/2000/svg">
<mask id="mask0_102_49" style="mask-type:alpha" maskUnits="userSpaceOnUse" x="0" y="0" width="32" height="32">
<rect width="32" height="32" fill="#D9D9D9"/>
</mask>
<g mask="url(#mask0_102_49)">
<path d="M15.9997 12.0999L15.3664 11.4665L18.3664 8.46654H11.5331V7.5332H18.3664L15.3664 4.5332L15.9997 3.89987L20.0997 7.99987L15.9997 12.0999ZM9.86641 27.7999C9.3553 27.7999 8.92752 27.6276 8.58307 27.2832C8.23863 26.9388 8.06641 26.511 8.06641 25.9999C8.06641 25.4888 8.23863 25.061 8.58307 24.7165C8.92752 24.3721 9.3553 24.1999 9.86641 24.1999C10.3775 24.1999 10.8053 24.3721 11.1497 24.7165C11.4942 25.061 11.6664 25.4888 11.6664 25.9999C11.6664 26.511 11.4942 26.9388 11.1497 27.2832C10.8053 27.6276 10.3775 27.7999 9.86641 27.7999ZM22.1331 27.7999C21.622 27.7999 21.1942 27.6276 20.8497 27.2832C20.5053 26.9388 20.3331 26.511 20.3331 25.9999C20.3331 25.4888 20.5053 25.061 20.8497 24.7165C21.1942 24.3721 21.622 24.1999 22.1331 24.1999C22.6442 24.1999 23.072 24.3721 23.4164 24.7165C23.7609 25.061 23.9331 25.4888 23.9331 25.9999C23.9331 26.511 23.7609 26.9388 23.4164 27.2832C23.072 27.6276 22.6442 27.7999 22.1331 27.7999ZM3.06641 4.46654V3.5332H5.99974L11.3997 14.8665H20.0997C20.2997 14.8665 20.4775 14.8165 20.6331 14.7165C20.7886 14.6165 20.922 14.4776 21.0331 14.2999L25.5331 6.19987H26.5997L21.7997 14.8665C21.622 15.1554 21.3942 15.3832 21.1164 15.5499C20.8386 15.7165 20.5331 15.7999 20.1997 15.7999H10.7997L9.13307 18.8665C8.9553 19.1332 8.94974 19.4221 9.11641 19.7332C9.28307 20.0443 9.53307 20.1999 9.86641 20.1999H23.9331V21.1332H9.86641C9.1553 21.1332 8.62752 20.8388 8.28307 20.2499C7.93863 19.661 7.93307 19.0665 8.26641 18.4665L10.3331 14.7999L5.39974 4.46654H3.06641Z" fill="white"/>
</g>
</svg>
