<svg width="32" height="32" viewBox="0 0 32 32" fill="none" xmlns="http://www.w3.org/2000/svg">
<mask id="mask0_110_25" style="mask-type:alpha" maskUnits="userSpaceOnUse" x="0" y="0" width="32" height="32">
<rect width="32" height="32" fill="#D9D9D9"/>
</mask>
<g mask="url(#mask0_110_25)">
<path d="M6.66667 29.3333C5.93333 29.3333 5.30556 29.0721 4.78333 28.5499C4.26111 28.0277 4 27.3999 4 26.6666V10.6666C4 9.93325 4.26111 9.30547 4.78333 8.78325C5.30556 8.26103 5.93333 7.99992 6.66667 7.99992H9.33333C9.33333 6.15547 9.98333 4.58325 11.2833 3.28325C12.5833 1.98325 14.1556 1.33325 16 1.33325C17.8444 1.33325 19.4167 1.98325 20.7167 3.28325C22.0167 4.58325 22.6667 6.15547 22.6667 7.99992H25.3333C26.0667 7.99992 26.6944 8.26103 27.2167 8.78325C27.7389 9.30547 28 9.93325 28 10.6666V26.6666C28 27.3999 27.7389 28.0277 27.2167 28.5499C26.6944 29.0721 26.0667 29.3333 25.3333 29.3333H6.66667ZM6.66667 26.6666H25.3333V10.6666H6.66667V26.6666ZM16 18.6666C17.8444 18.6666 19.4167 18.0166 20.7167 16.7166C22.0167 15.4166 22.6667 13.8444 22.6667 11.9999H20C20 13.111 19.6111 14.0555 18.8333 14.8333C18.0556 15.611 17.1111 15.9999 16 15.9999C14.8889 15.9999 13.9444 15.611 13.1667 14.8333C12.3889 14.0555 12 13.111 12 11.9999H9.33333C9.33333 13.8444 9.98333 15.4166 11.2833 16.7166C12.5833 18.0166 14.1556 18.6666 16 18.6666ZM12 7.99992H20C20 6.88881 19.6111 5.94436 18.8333 5.16659C18.0556 4.38881 17.1111 3.99992 16 3.99992C14.8889 3.99992 13.9444 4.38881 13.1667 5.16659C12.3889 5.94436 12 6.88881 12 7.99992Z" fill="#1C1B1F"/>
</g>
</svg>
