<svg width="24" height="24" viewBox="0 0 24 24" fill="none" xmlns="http://www.w3.org/2000/svg">
<mask id="mask0_103_61" style="mask-type:alpha" maskUnits="userSpaceOnUse" x="0" y="0" width="24" height="24">
<rect width="24" height="24" fill="#D9D9D9"/>
</mask>
<g mask="url(#mask0_103_61)">
<path d="M8.3 9.9999L12 3.8999L15.7 9.9999H8.3ZM17.5 20.9999C16.5167 20.9999 15.6875 20.6624 15.0125 19.9874C14.3375 19.3124 14 18.4832 14 17.4999C14 16.5166 14.3375 15.6874 15.0125 15.0124C15.6875 14.3374 16.5167 13.9999 17.5 13.9999C18.4833 13.9999 19.3125 14.3374 19.9875 15.0124C20.6625 15.6874 21 16.5166 21 17.4999C21 18.4832 20.6625 19.3124 19.9875 19.9874C19.3125 20.6624 18.4833 20.9999 17.5 20.9999ZM4 20.4999V14.4999H10V20.4999H4ZM17.4993 20.2999C18.2831 20.2999 18.9458 20.0293 19.4875 19.4881C20.0292 18.9469 20.3 18.2844 20.3 17.5006C20.3 16.7168 20.0294 16.0541 19.4882 15.5124C18.947 14.9707 18.2845 14.6999 17.5007 14.6999C16.7169 14.6999 16.0542 14.9705 15.5125 15.5117C14.9708 16.0529 14.7 16.7154 14.7 17.4992C14.7 18.283 14.9706 18.9457 15.5118 19.4874C16.053 20.0291 16.7155 20.2999 17.4993 20.2999ZM4.7 19.7999H9.3V15.1999H4.7V19.7999ZM9.5 9.2999H14.5L12 5.2999L9.5 9.2999Z" fill="white"/>
</g>
</svg>
