<svg width="32" height="32" viewBox="0 0 32 32" fill="none" xmlns="http://www.w3.org/2000/svg">
<mask id="mask0_107_31" style="mask-type:alpha" maskUnits="userSpaceOnUse" x="0" y="0" width="32" height="32">
<rect width="32" height="32" fill="#D9D9D9"/>
</mask>
<g mask="url(#mask0_107_31)">
<path d="M29.3333 7.99992V23.9999C29.3333 24.7333 29.0722 25.361 28.55 25.8833C28.0277 26.4055 27.4 26.6666 26.6666 26.6666H5.33329C4.59996 26.6666 3.97218 26.4055 3.44996 25.8833C2.92774 25.361 2.66663 24.7333 2.66663 23.9999V7.99992C2.66663 7.26659 2.92774 6.63881 3.44996 6.11659C3.97218 5.59436 4.59996 5.33325 5.33329 5.33325H26.6666C27.4 5.33325 28.0277 5.59436 28.55 6.11659C29.0722 6.63881 29.3333 7.26659 29.3333 7.99992ZM5.33329 10.6666H26.6666V7.99992H5.33329V10.6666ZM5.33329 15.9999V23.9999H26.6666V15.9999H5.33329Z" fill="#1C1B1F"/>
</g>
</svg>
