<svg width="33" height="33" viewBox="0 0 33 33" fill="none" xmlns="http://www.w3.org/2000/svg">
<mask id="mask0_102_13" style="mask-type:alpha" maskUnits="userSpaceOnUse" x="0" y="0" width="33" height="33">
<rect x="0.284668" y="0.111816" width="32" height="32" fill="#D9D9D9"/>
</mask>
<g mask="url(#mask0_102_13)">
<path d="M14.0846 27.5119C12.7068 27.223 11.4401 26.7286 10.2846 26.0286C9.12901 25.3286 8.13457 24.4786 7.30124 23.4786C6.4679 22.4786 5.82346 21.3508 5.3679 20.0952C4.91235 18.8397 4.68457 17.5119 4.68457 16.1119C4.68457 14.223 5.10124 12.4619 5.93457 10.8286C6.7679 9.19525 8.05124 7.75636 9.78457 6.51191H5.58457V5.57858H11.4179V11.4119H10.4846V7.17858C8.8179 8.28969 7.59013 9.62303 6.80124 11.1786C6.01235 12.7341 5.6179 14.3786 5.6179 16.1119C5.6179 18.6008 6.38457 20.8175 7.9179 22.7619C9.45124 24.7064 11.5068 25.9675 14.0846 26.5452V27.5119ZM14.3846 21.0452L9.95124 16.6119L10.6179 15.9452L14.3846 19.7119L21.9512 12.1452L22.6179 12.8119L14.3846 21.0452ZM21.1512 26.6786V20.8452H22.0846V25.0786C23.729 23.9452 24.9512 22.6008 25.7512 21.0452C26.5512 19.4897 26.9512 17.8452 26.9512 16.1119C26.9512 13.623 26.1846 11.4064 24.6512 9.46191C23.1179 7.51747 21.0623 6.25636 18.4846 5.67858V4.71191C21.2623 5.28969 23.5235 6.62858 25.2679 8.72858C27.0123 10.8286 27.8846 13.2897 27.8846 16.1119C27.8846 18.0008 27.4679 19.7675 26.6346 21.4119C25.8012 23.0564 24.5179 24.5008 22.7846 25.7452H26.9846V26.6786H21.1512Z" fill="white"/>
</g>
</svg>
