<svg width="32" height="32" viewBox="0 0 32 32" fill="none" xmlns="http://www.w3.org/2000/svg">
<mask id="mask0_102_37" style="mask-type:alpha" maskUnits="userSpaceOnUse" x="0" y="0" width="32" height="32">
<rect width="32" height="32" fill="#D9D9D9"/>
</mask>
<g mask="url(#mask0_102_37)">
<path d="M15.9999 25.6671L15.2666 25.0004C13.111 23.0226 11.3277 21.3338 9.91657 19.9338C8.50546 18.5338 7.39435 17.306 6.58324 16.2504C5.77212 15.1949 5.20546 14.2449 4.88324 13.4004C4.56101 12.556 4.3999 11.7115 4.3999 10.8671C4.3999 9.28931 4.93879 7.96153 6.01657 6.88376C7.09435 5.80598 8.42212 5.26709 9.9999 5.26709C11.1777 5.26709 12.2777 5.58376 13.2999 6.21709C14.3221 6.85042 15.2221 7.7782 15.9999 9.00042C16.7777 7.7782 17.6777 6.85042 18.6999 6.21709C19.7221 5.58376 20.8221 5.26709 21.9999 5.26709C23.5777 5.26709 24.9055 5.80598 25.9832 6.88376C27.061 7.96153 27.5999 9.28931 27.5999 10.8671C27.5999 11.7115 27.4388 12.556 27.1166 13.4004C26.7943 14.2449 26.2277 15.1949 25.4166 16.2504C24.6055 17.306 23.4999 18.5338 22.0999 19.9338C20.6999 21.3338 18.911 23.0226 16.7332 25.0004L15.9999 25.6671ZM15.9999 24.4004C18.1332 22.4671 19.8888 20.8115 21.2666 19.4338C22.6443 18.056 23.7332 16.8615 24.5332 15.8504C25.3332 14.8393 25.8888 13.9449 26.1999 13.1671C26.511 12.3893 26.6666 11.6226 26.6666 10.8671C26.6666 9.53376 26.2221 8.42265 25.3332 7.53376C24.4443 6.64487 23.3332 6.20042 21.9999 6.20042C20.9332 6.20042 19.9499 6.50598 19.0499 7.11709C18.1499 7.7282 17.2888 8.68931 16.4666 10.0004H15.5332C14.6888 8.66709 13.8221 7.70042 12.9332 7.10042C12.0443 6.50042 11.0666 6.20042 9.9999 6.20042C8.68879 6.20042 7.58324 6.64487 6.68324 7.53376C5.78324 8.42265 5.33324 9.53376 5.33324 10.8671C5.33324 11.6226 5.48879 12.3893 5.7999 13.1671C6.11101 13.9449 6.66657 14.8393 7.46657 15.8504C8.26657 16.8615 9.35546 18.0504 10.7332 19.4171C12.111 20.7838 13.8666 22.4449 15.9999 24.4004Z" fill="white"/>
</g>
</svg>
