<svg width="32" height="32" viewBox="0 0 32 32" fill="none" xmlns="http://www.w3.org/2000/svg">
<mask id="mask0_107_13" style="mask-type:alpha" maskUnits="userSpaceOnUse" x="0" y="0" width="32" height="32">
<rect width="32" height="32" fill="#D9D9D9"/>
</mask>
<g mask="url(#mask0_107_13)">
<path d="M5.33335 22.6667V25.3334H26.6667V22.6667H5.33335ZM5.33335 8.00008H8.26669C8.15558 7.80008 8.08335 7.58897 8.05002 7.36675C8.01669 7.14453 8.00002 6.91119 8.00002 6.66675C8.00002 5.55564 8.38891 4.61119 9.16669 3.83341C9.94446 3.05564 10.8889 2.66675 12 2.66675C12.6667 2.66675 13.2834 2.83897 13.85 3.18341C14.4167 3.52786 14.9111 3.95564 15.3334 4.46675L16 5.33341L16.6667 4.46675C17.0667 3.93341 17.5556 3.50008 18.1334 3.16675C18.7111 2.83341 19.3334 2.66675 20 2.66675C21.1111 2.66675 22.0556 3.05564 22.8334 3.83341C23.6111 4.61119 24 5.55564 24 6.66675C24 6.91119 23.9834 7.14453 23.95 7.36675C23.9167 7.58897 23.8445 7.80008 23.7334 8.00008H26.6667C27.4 8.00008 28.0278 8.26119 28.55 8.78342C29.0722 9.30564 29.3334 9.93341 29.3334 10.6667V25.3334C29.3334 26.0667 29.0722 26.6945 28.55 27.2167C28.0278 27.739 27.4 28.0001 26.6667 28.0001H5.33335C4.60002 28.0001 3.97224 27.739 3.45002 27.2167C2.9278 26.6945 2.66669 26.0667 2.66669 25.3334V10.6667C2.66669 9.93341 2.9278 9.30564 3.45002 8.78342C3.97224 8.26119 4.60002 8.00008 5.33335 8.00008ZM5.33335 18.6667H26.6667V10.6667H19.8667L22.6667 14.4667L20.5334 16.0001L16 9.86675L11.4667 16.0001L9.33335 14.4667L12.0667 10.6667H5.33335V18.6667ZM12 8.00008C12.3778 8.00008 12.6945 7.8723 12.95 7.61675C13.2056 7.36119 13.3334 7.04453 13.3334 6.66675C13.3334 6.28897 13.2056 5.9723 12.95 5.71675C12.6945 5.46119 12.3778 5.33341 12 5.33341C11.6222 5.33341 11.3056 5.46119 11.05 5.71675C10.7945 5.9723 10.6667 6.28897 10.6667 6.66675C10.6667 7.04453 10.7945 7.36119 11.05 7.61675C11.3056 7.8723 11.6222 8.00008 12 8.00008ZM20 8.00008C20.3778 8.00008 20.6945 7.8723 20.95 7.61675C21.2056 7.36119 21.3334 7.04453 21.3334 6.66675C21.3334 6.28897 21.2056 5.9723 20.95 5.71675C20.6945 5.46119 20.3778 5.33341 20 5.33341C19.6222 5.33341 19.3056 5.46119 19.05 5.71675C18.7945 5.9723 18.6667 6.28897 18.6667 6.66675C18.6667 7.04453 18.7945 7.36119 19.05 7.61675C19.3056 7.8723 19.6222 8.00008 20 8.00008Z" fill="#1C1B1F"/>
</g>
</svg>
