<svg width="33" height="33" viewBox="0 0 33 33" fill="none" xmlns="http://www.w3.org/2000/svg">
<g clip-path="url(#clip0_105_62)">
<path d="M25.9196 9.99148C26.2352 9.02553 26.3434 8.00387 26.2372 6.99323C26.131 5.9826 25.8128 5.00574 25.3033 4.12648C25.2375 4.0124 25.1427 3.91767 25.0286 3.85184C24.9145 3.78601 24.7851 3.7514 24.6533 3.75148C23.5062 3.74894 22.3749 4.01973 21.3532 4.54143C20.3316 5.06313 19.4489 5.82073 18.7783 6.75148H15.5283C14.8577 5.82073 13.9751 5.06313 12.9534 4.54143C11.9317 4.01973 10.8005 3.74894 9.65332 3.75148C9.52159 3.7514 9.39215 3.78601 9.27805 3.85184C9.16394 3.91767 9.06919 4.0124 9.00332 4.12648C8.49385 5.00574 8.17563 5.9826 8.06944 6.99323C7.96325 8.00387 8.07148 9.02553 8.38707 9.99148C7.75426 11.0538 7.41478 12.265 7.40332 13.5015V14.5015C7.40552 16.2141 8.05789 17.8619 9.22854 19.112C10.3992 20.362 12.0008 21.1209 13.7096 21.2352C12.8705 22.1156 12.4028 23.2853 12.4033 24.5015V25.7515H9.15332C8.29137 25.7515 7.46472 25.4091 6.85522 24.7996C6.24573 24.1901 5.90332 23.3634 5.90332 22.5015C5.90332 21.2417 5.40288 20.0335 4.51208 19.1427C3.62128 18.2519 2.4131 17.7515 1.15332 17.7515C0.954408 17.7515 0.763643 17.8305 0.62299 17.9712C0.482338 18.1118 0.40332 18.3026 0.40332 18.5015C0.40332 18.7004 0.482338 18.8912 0.62299 19.0318C0.763643 19.1725 0.954408 19.2515 1.15332 19.2515C2.01527 19.2515 2.84192 19.5939 3.45142 20.2034C4.06091 20.8129 4.40332 21.6395 4.40332 22.5015C4.40332 23.7613 4.90377 24.9694 5.79456 25.8602C6.68536 26.751 7.89354 27.2515 9.15332 27.2515H12.4033V29.5015C12.4033 29.7004 12.4823 29.8912 12.623 30.0318C12.7636 30.1725 12.9544 30.2515 13.1533 30.2515C13.3522 30.2515 13.543 30.1725 13.6837 30.0318C13.8243 29.8912 13.9033 29.7004 13.9033 29.5015V24.5015C13.9033 23.6395 14.2457 22.8129 14.8552 22.2034C15.4647 21.5939 16.2914 21.2515 17.1533 21.2515C18.0153 21.2515 18.8419 21.5939 19.4514 22.2034C20.0609 22.8129 20.4033 23.6395 20.4033 24.5015V29.5015C20.4033 29.7004 20.4823 29.8912 20.623 30.0318C20.7636 30.1725 20.9544 30.2515 21.1533 30.2515C21.3522 30.2515 21.543 30.1725 21.6837 30.0318C21.8243 29.8912 21.9033 29.7004 21.9033 29.5015V24.5015C21.9039 23.2853 21.4361 22.1156 20.5971 21.2352C22.3058 21.1209 23.9074 20.362 25.0781 19.112C26.2488 17.8619 26.9011 16.2141 26.9033 14.5015V13.5015C26.8919 12.265 26.5524 11.0538 25.9196 9.99148ZM25.4033 14.5015C25.4033 15.8939 24.8502 17.2292 23.8656 18.2138C22.8811 19.1984 21.5457 19.7515 20.1533 19.7515H14.1533C12.7609 19.7515 11.4256 19.1984 10.441 18.2138C9.45644 17.2292 8.90332 15.8939 8.90332 14.5015V13.5015C8.91641 12.4472 9.23323 11.419 9.81582 10.5402C9.89236 10.4387 9.94182 10.3193 9.95953 10.1933C9.97724 10.0674 9.96263 9.93898 9.91707 9.82023C9.63405 9.0895 9.50389 8.30848 9.53464 7.52546C9.56538 6.74243 9.75638 5.97403 10.0958 5.26773C10.9844 5.33476 11.845 5.60805 12.6095 6.0659C13.3739 6.52374 14.0211 7.15353 14.4996 7.90523C14.5674 8.01144 14.6609 8.09884 14.7715 8.15936C14.882 8.21987 15.006 8.25156 15.1321 8.25148H19.1746C19.3005 8.25169 19.4244 8.2202 19.535 8.15991C19.6455 8.09961 19.7391 8.01246 19.8071 7.90648C20.2853 7.15441 20.9323 6.52428 21.6968 6.0662C22.4613 5.60811 23.3221 5.33471 24.2108 5.26773C24.5503 5.97403 24.7413 6.74243 24.772 7.52546C24.8027 8.30848 24.6726 9.0895 24.3896 9.82023C24.3441 9.93844 24.3293 10.0662 24.3466 10.1917C24.3639 10.3172 24.4126 10.4362 24.4883 10.5377C25.0728 11.4167 25.3905 12.446 25.4033 13.5015V14.5015Z" fill="white"/>
</g>
<defs>
<clipPath id="clip0_105_62">
<rect width="32" height="32" fill="white" transform="translate(0.15332 0.501465)"/>
</clipPath>
</defs>
</svg>
