<svg width="33" height="33" viewBox="0 0 33 33" fill="none" xmlns="http://www.w3.org/2000/svg">
<mask id="mask0_110_7" style="mask-type:alpha" maskUnits="userSpaceOnUse" x="0" y="0" width="33" height="33">
<rect x="0.484436" y="0.13501" width="32" height="32" fill="#D9D9D9"/>
</mask>
<g mask="url(#mask0_110_7)">
<path d="M16.4845 28.1349L14.5511 26.4015C12.3067 24.3793 10.4511 22.6349 8.98446 21.1682C7.51779 19.7015 6.35112 18.3849 5.48446 17.2182C4.61779 16.0515 4.01223 14.9793 3.66779 14.0015C3.32335 13.0238 3.15112 12.0238 3.15112 11.0015C3.15112 8.91266 3.85112 7.16821 5.25112 5.76821C6.65112 4.36821 8.39557 3.66821 10.4845 3.66821C11.64 3.66821 12.74 3.91266 13.7845 4.40155C14.8289 4.89044 15.7289 5.57932 16.4845 6.46821C17.24 5.57932 18.14 4.89044 19.1845 4.40155C20.2289 3.91266 21.3289 3.66821 22.4845 3.66821C24.5733 3.66821 26.3178 4.36821 27.7178 5.76821C29.1178 7.16821 29.8178 8.91266 29.8178 11.0015C29.8178 12.0238 29.6456 13.0238 29.3011 14.0015C28.9567 14.9793 28.3511 16.0515 27.4845 17.2182C26.6178 18.3849 25.4511 19.7015 23.9845 21.1682C22.5178 22.6349 20.6622 24.3793 18.4178 26.4015L16.4845 28.1349ZM16.4845 24.5349C18.6178 22.6238 20.3733 20.9849 21.7511 19.6182C23.1289 18.2515 24.2178 17.0627 25.0178 16.0515C25.8178 15.0404 26.3733 14.1404 26.6845 13.3515C26.9956 12.5627 27.1511 11.7793 27.1511 11.0015C27.1511 9.66821 26.7067 8.5571 25.8178 7.66821C24.9289 6.77932 23.8178 6.33488 22.4845 6.33488C21.44 6.33488 20.4733 6.62932 19.5845 7.21821C18.6956 7.8071 18.0845 8.5571 17.7511 9.46821H15.2178C14.8845 8.5571 14.2733 7.8071 13.3845 7.21821C12.4956 6.62932 11.5289 6.33488 10.4845 6.33488C9.15112 6.33488 8.04001 6.77932 7.15112 7.66821C6.26223 8.5571 5.81779 9.66821 5.81779 11.0015C5.81779 11.7793 5.97335 12.5627 6.28446 13.3515C6.59557 14.1404 7.15112 15.0404 7.95112 16.0515C8.75112 17.0627 9.84001 18.2515 11.2178 19.6182C12.5956 20.9849 14.3511 22.6238 16.4845 24.5349Z" fill="#FF0000"/>
</g>
</svg>
