<svg width="33" height="33" viewBox="0 0 33 33" fill="none" xmlns="http://www.w3.org/2000/svg">
<path d="M27.0947 3.96875H5.09473C4.6306 3.96875 4.18548 4.15312 3.85729 4.48131C3.5291 4.8095 3.34473 5.25462 3.34473 5.71875V27.7188C3.34473 28.1829 3.5291 28.628 3.85729 28.9562C4.18548 29.2844 4.6306 29.4688 5.09473 29.4688H27.0947C27.5589 29.4688 28.004 29.2844 28.3322 28.9562C28.6604 28.628 28.8447 28.1829 28.8447 27.7188V5.71875C28.8447 5.25462 28.6604 4.8095 28.3322 4.48131C28.004 4.15312 27.5589 3.96875 27.0947 3.96875ZM27.3447 27.7188C27.3447 27.7851 27.3184 27.8486 27.2715 27.8955C27.2246 27.9424 27.161 27.9688 27.0947 27.9688H5.09473C5.02842 27.9688 4.96483 27.9424 4.91795 27.8955C4.87107 27.8486 4.84473 27.7851 4.84473 27.7188V5.71875C4.84473 5.65245 4.87107 5.58886 4.91795 5.54197C4.96483 5.49509 5.02842 5.46875 5.09473 5.46875H27.0947C27.161 5.46875 27.2246 5.49509 27.2715 5.54197C27.3184 5.58886 27.3447 5.65245 27.3447 5.71875V27.7188ZM11.8447 14.7188V22.7188C11.8447 22.9177 11.7657 23.1084 11.6251 23.2491C11.4844 23.3897 11.2936 23.4688 11.0947 23.4688C10.8958 23.4688 10.705 23.3897 10.5644 23.2491C10.4237 23.1084 10.3447 22.9177 10.3447 22.7188V14.7188C10.3447 14.5198 10.4237 14.3291 10.5644 14.1884C10.705 14.0478 10.8958 13.9688 11.0947 13.9688C11.2936 13.9688 11.4844 14.0478 11.6251 14.1884C11.7657 14.3291 11.8447 14.5198 11.8447 14.7188ZM22.8447 18.2188V22.7188C22.8447 22.9177 22.7657 23.1084 22.6251 23.2491C22.4844 23.3897 22.2936 23.4688 22.0947 23.4688C21.8958 23.4688 21.705 23.3897 21.5644 23.2491C21.4237 23.1084 21.3447 22.9177 21.3447 22.7188V18.2188C21.3447 17.4894 21.055 16.7899 20.5393 16.2742C20.0235 15.7585 19.3241 15.4688 18.5947 15.4688C17.8654 15.4688 17.1659 15.7585 16.6502 16.2742C16.1345 16.7899 15.8447 17.4894 15.8447 18.2188V22.7188C15.8447 22.9177 15.7657 23.1084 15.6251 23.2491C15.4844 23.3897 15.2936 23.4688 15.0947 23.4688C14.8958 23.4688 14.705 23.3897 14.5644 23.2491C14.4237 23.1084 14.3447 22.9177 14.3447 22.7188V14.7188C14.3447 14.5198 14.4237 14.3291 14.5644 14.1884C14.705 14.0478 14.8958 13.9688 15.0947 13.9688C15.2936 13.9688 15.4844 14.0478 15.6251 14.1884C15.7657 14.3291 15.8447 14.5198 15.8447 14.7188V14.9825C16.4628 14.4579 17.218 14.1211 18.0213 14.0117C18.8246 13.9024 19.6424 14.025 20.3782 14.3652C21.1141 14.7054 21.7373 15.2489 22.1743 15.9317C22.6113 16.6145 22.8439 17.4081 22.8447 18.2188ZM12.3447 11.2188C12.3447 11.466 12.2714 11.7077 12.1341 11.9132C11.9967 12.1188 11.8015 12.279 11.5731 12.3736C11.3447 12.4682 11.0933 12.493 10.8509 12.4447C10.6084 12.3965 10.3857 12.2774 10.2108 12.1026C10.036 11.9278 9.91698 11.7051 9.86874 11.4626C9.82051 11.2201 9.84527 10.9688 9.93988 10.7404C10.0345 10.512 10.1947 10.3168 10.4003 10.1794C10.6058 10.0421 10.8475 9.96875 11.0947 9.96875C11.4262 9.96875 11.7442 10.1004 11.9786 10.3349C12.213 10.5693 12.3447 10.8872 12.3447 11.2188Z" fill="white"/>
</svg>
