<svg width="32" height="32" viewBox="0 0 32 32" fill="none" xmlns="http://www.w3.org/2000/svg">
<mask id="mask0_115_7" style="mask-type:alpha" maskUnits="userSpaceOnUse" x="0" y="0" width="32" height="32">
<rect width="32" height="32" fill="#D9D9D9"/>
</mask>
<g mask="url(#mask0_115_7)">
<path d="M22.2 17.3334L14.6667 9.80003L22.2 2.26669L29.7333 9.80003L22.2 17.3334ZM4 14.6667V4.00003H14.6667V14.6667H4ZM17.3333 28V17.3334H28V28H17.3333ZM4 28V17.3334H14.6667V28H4ZM6.66667 12H12V6.66669H6.66667V12ZM22.2333 13.6L26 9.83336L22.2333 6.06669L18.4667 9.83336L22.2333 13.6ZM20 25.3334H25.3333V20H20V25.3334ZM6.66667 25.3334H12V20H6.66667V25.3334Z" fill="black"/>
</g>
</svg>
