<svg width="32" height="32" viewBox="0 0 32 32" fill="none" xmlns="http://www.w3.org/2000/svg">
<mask id="mask0_102_43" style="mask-type:alpha" maskUnits="userSpaceOnUse" x="0" y="0" width="32" height="32">
<rect width="32" height="32" fill="#D9D9D9"/>
</mask>
<g mask="url(#mask0_102_43)">
<path d="M15.9997 14.9329C15.0097 14.9329 14.1622 14.5804 13.4572 13.8754C12.7522 13.1704 12.3997 12.3229 12.3997 11.3329C12.3997 10.3429 12.7522 9.49541 13.4572 8.79041C14.1622 8.08541 15.0097 7.73291 15.9997 7.73291C16.9897 7.73291 17.8372 8.08541 18.5422 8.79041C19.2472 9.49541 19.5997 10.3429 19.5997 11.3329C19.5997 12.3229 19.2472 13.1704 18.5422 13.8754C17.8372 14.5804 16.9897 14.9329 15.9997 14.9329ZM7.06641 24.2662V22.5329C7.06641 22.044 7.21641 21.5829 7.51641 21.1496C7.81641 20.7162 8.22196 20.3774 8.73307 20.1329C9.95529 19.5551 11.172 19.1218 12.3831 18.8329C13.5942 18.544 14.7997 18.3996 15.9997 18.3996C17.1997 18.3996 18.4053 18.544 19.6164 18.8329C20.8275 19.1218 22.0442 19.5551 23.2664 20.1329C23.7775 20.3774 24.1831 20.7162 24.4831 21.1496C24.7831 21.5829 24.9331 22.044 24.9331 22.5329V24.2662H7.06641ZM7.99974 23.3329H23.9997V22.5329C23.9997 22.2218 23.8942 21.9274 23.6831 21.6496C23.472 21.3718 23.1775 21.1329 22.7997 20.9329C21.7331 20.4218 20.6254 20.0274 19.4768 19.7496C18.3283 19.4718 17.1692 19.3329 15.9997 19.3329C14.8303 19.3329 13.6712 19.4718 12.5226 19.7496C11.374 20.0274 10.2664 20.4218 9.19974 20.9329C8.82196 21.1329 8.52752 21.3718 8.31641 21.6496C8.1053 21.9274 7.99974 22.2218 7.99974 22.5329V23.3329ZM15.9997 13.9996C16.7331 13.9996 17.3609 13.7385 17.8831 13.2162C18.4053 12.694 18.6664 12.0662 18.6664 11.3329C18.6664 10.5996 18.4053 9.9718 17.8831 9.44958C17.3609 8.92735 16.7331 8.66624 15.9997 8.66624C15.2664 8.66624 14.6386 8.92735 14.1164 9.44958C13.5942 9.9718 13.3331 10.5996 13.3331 11.3329C13.3331 12.0662 13.5942 12.694 14.1164 13.2162C14.6386 13.7385 15.2664 13.9996 15.9997 13.9996Z" fill="white"/>
</g>
</svg>
