<svg width="33" height="33" viewBox="0 0 33 33" fill="none" xmlns="http://www.w3.org/2000/svg">
<mask id="mask0_114_7" style="mask-type:alpha" maskUnits="userSpaceOnUse" x="0" y="0" width="33" height="33">
<rect x="0.0928955" y="0.57251" width="32" height="32" fill="#D9D9D9"/>
</mask>
<g mask="url(#mask0_114_7)">
<path d="M14.7596 28.5725H6.75956C6.02623 28.5725 5.39845 28.3114 4.87623 27.7892C4.35401 27.267 4.0929 26.6392 4.0929 25.9058V7.23918C4.0929 6.50584 4.35401 5.87807 4.87623 5.35584C5.39845 4.83362 6.02623 4.57251 6.75956 4.57251H14.7596V28.5725ZM12.0929 25.9058V7.23918H6.75956V25.9058H12.0929ZM17.4262 15.2392V4.57251H25.4262C26.1596 4.57251 26.7873 4.83362 27.3096 5.35584C27.8318 5.87807 28.0929 6.50584 28.0929 7.23918V15.2392H17.4262ZM20.0929 12.5725H25.4262V7.23918H20.0929V12.5725ZM17.4262 28.5725V17.9058H28.0929V25.9058C28.0929 26.6392 27.8318 27.267 27.3096 27.7892C26.7873 28.3114 26.1596 28.5725 25.4262 28.5725H17.4262ZM20.0929 25.9058H25.4262V20.5725H20.0929V25.9058Z" fill="black"/>
</g>
</svg>
