<svg width="32" height="32" viewBox="0 0 32 32" fill="none" xmlns="http://www.w3.org/2000/svg">
<mask id="mask0_114_13" style="mask-type:alpha" maskUnits="userSpaceOnUse" x="0" y="0" width="32" height="32">
<rect width="32" height="32" fill="#D9D9D9"/>
</mask>
<g mask="url(#mask0_114_13)">
<path d="M20 28C19.2667 28 18.6389 27.7389 18.1167 27.2167C17.5944 26.6944 17.3333 26.0667 17.3333 25.3333V6.66667C17.3333 5.93333 17.5944 5.30556 18.1167 4.78333C18.6389 4.26111 19.2667 4 20 4H25.3333C26.0667 4 26.6944 4.26111 27.2167 4.78333C27.7389 5.30556 28 5.93333 28 6.66667V25.3333C28 26.0667 27.7389 26.6944 27.2167 27.2167C26.6944 27.7389 26.0667 28 25.3333 28H20ZM20 6.66667V25.3333H25.3333V6.66667H20ZM6.66667 28C5.93333 28 5.30556 27.7389 4.78333 27.2167C4.26111 26.6944 4 26.0667 4 25.3333V6.66667C4 5.93333 4.26111 5.30556 4.78333 4.78333C5.30556 4.26111 5.93333 4 6.66667 4H12C12.7333 4 13.3611 4.26111 13.8833 4.78333C14.4056 5.30556 14.6667 5.93333 14.6667 6.66667V25.3333C14.6667 26.0667 14.4056 26.6944 13.8833 27.2167C13.3611 27.7389 12.7333 28 12 28H6.66667ZM6.66667 6.66667V25.3333H12V6.66667H6.66667Z" fill="black"/>
</g>
</svg>
