<svg width="32" height="32" viewBox="0 0 32 32" fill="none" xmlns="http://www.w3.org/2000/svg">
<mask id="mask0_108_43" style="mask-type:alpha" maskUnits="userSpaceOnUse" x="0" y="0" width="32" height="32">
<rect width="32" height="32" fill="#D9D9D9"/>
</mask>
<g mask="url(#mask0_108_43)">
<path d="M19 28.5334C18.4889 29.0445 17.8556 29.3001 17.1 29.3001C16.3445 29.3001 15.7111 29.0445 15.2 28.5334L3.46669 16.8001C3.22224 16.5556 3.0278 16.2667 2.88335 15.9334C2.73891 15.6001 2.66669 15.2445 2.66669 14.8667V5.33341C2.66669 4.60008 2.9278 3.9723 3.45002 3.45008C3.97224 2.92786 4.60002 2.66675 5.33335 2.66675H14.8667C15.2445 2.66675 15.6 2.73897 15.9334 2.88341C16.2667 3.02786 16.5556 3.2223 16.8 3.46675L28.5334 15.2334C29.0445 15.7445 29.3 16.3723 29.3 17.1167C29.3 17.8612 29.0445 18.489 28.5334 19.0001L19 28.5334ZM17.1 26.6667L26.6334 17.1334L14.8667 5.33341H5.33335V14.8667L17.1 26.6667ZM8.66669 10.6667C9.22224 10.6667 9.69446 10.4723 10.0834 10.0834C10.4722 9.69453 10.6667 9.2223 10.6667 8.66675C10.6667 8.11119 10.4722 7.63897 10.0834 7.25008C9.69446 6.86119 9.22224 6.66675 8.66669 6.66675C8.11113 6.66675 7.63891 6.86119 7.25002 7.25008C6.86113 7.63897 6.66669 8.11119 6.66669 8.66675C6.66669 9.2223 6.86113 9.69453 7.25002 10.0834C7.63891 10.4723 8.11113 10.6667 8.66669 10.6667Z" fill="#1C1B1F"/>
</g>
</svg>
