<svg width="33" height="33" viewBox="0 0 33 33" fill="none" xmlns="http://www.w3.org/2000/svg">
<mask id="mask0_107_7" style="mask-type:alpha" maskUnits="userSpaceOnUse" x="0" y="0" width="33" height="33">
<rect x="0.756897" y="0.197998" width="32" height="32" fill="#D9D9D9"/>
</mask>
<g mask="url(#mask0_107_7)">
<path d="M8.75688 26.8646C7.64577 26.8646 6.70132 26.4757 5.92354 25.6979C5.14577 24.9201 4.75688 23.9757 4.75688 22.8646H2.09021V8.19792C2.09021 7.46458 2.35132 6.83681 2.87354 6.31458C3.39577 5.79236 4.02354 5.53125 4.75688 5.53125H23.4235V10.8646H27.4235L31.4235 16.1979V22.8646H28.7569C28.7569 23.9757 28.368 24.9201 27.5902 25.6979C26.8124 26.4757 25.868 26.8646 24.7569 26.8646C23.6458 26.8646 22.7013 26.4757 21.9235 25.6979C21.1458 24.9201 20.7569 23.9757 20.7569 22.8646H12.7569C12.7569 23.9757 12.368 24.9201 11.5902 25.6979C10.8124 26.4757 9.86799 26.8646 8.75688 26.8646ZM8.75688 24.1979C9.13465 24.1979 9.45132 24.0701 9.70688 23.8146C9.96243 23.559 10.0902 23.2424 10.0902 22.8646C10.0902 22.4868 9.96243 22.1701 9.70688 21.9146C9.45132 21.659 9.13465 21.5313 8.75688 21.5313C8.3791 21.5313 8.06243 21.659 7.80688 21.9146C7.55132 22.1701 7.42354 22.4868 7.42354 22.8646C7.42354 23.2424 7.55132 23.559 7.80688 23.8146C8.06243 24.0701 8.3791 24.1979 8.75688 24.1979ZM4.75688 20.1979H5.82354C6.20132 19.7979 6.63465 19.4757 7.12354 19.2313C7.61243 18.9868 8.15688 18.8646 8.75688 18.8646C9.35688 18.8646 9.90132 18.9868 10.3902 19.2313C10.8791 19.4757 11.3124 19.7979 11.6902 20.1979H20.7569V8.19792H4.75688V20.1979ZM24.7569 24.1979C25.1347 24.1979 25.4513 24.0701 25.7069 23.8146C25.9624 23.559 26.0902 23.2424 26.0902 22.8646C26.0902 22.4868 25.9624 22.1701 25.7069 21.9146C25.4513 21.659 25.1347 21.5313 24.7569 21.5313C24.3791 21.5313 24.0624 21.659 23.8069 21.9146C23.5513 22.1701 23.4235 22.4868 23.4235 22.8646C23.4235 23.2424 23.5513 23.559 23.8069 23.8146C24.0624 24.0701 24.3791 24.1979 24.7569 24.1979ZM23.4235 17.5313H29.0902L26.0902 13.5313H23.4235V17.5313Z" fill="#1C1B1F"/>
</g>
</svg>
