<svg width="33" height="33" viewBox="0 0 33 33" fill="none" xmlns="http://www.w3.org/2000/svg">
<mask id="mask0_110_49" style="mask-type:alpha" maskUnits="userSpaceOnUse" x="0" y="0" width="33" height="33">
<rect x="0.186157" y="0.397461" width="32" height="32" fill="#D9D9D9"/>
</mask>
<g mask="url(#mask0_110_49)">
<path d="M16.1861 21.7307C17.8528 21.7307 19.2695 21.1474 20.4361 19.9807C21.6028 18.814 22.1861 17.3974 22.1861 15.7307C22.1861 14.064 21.6028 12.6474 20.4361 11.4807C19.2695 10.314 17.8528 9.73071 16.1861 9.73071C14.5195 9.73071 13.1028 10.314 11.9361 11.4807C10.7695 12.6474 10.1861 14.064 10.1861 15.7307C10.1861 17.3974 10.7695 18.814 11.9361 19.9807C13.1028 21.1474 14.5195 21.7307 16.1861 21.7307ZM16.1861 19.3307C15.1861 19.3307 14.3361 18.9807 13.6361 18.2807C12.9361 17.5807 12.5861 16.7307 12.5861 15.7307C12.5861 14.7307 12.9361 13.8807 13.6361 13.1807C14.3361 12.4807 15.1861 12.1307 16.1861 12.1307C17.1861 12.1307 18.0361 12.4807 18.7361 13.1807C19.4361 13.8807 19.7861 14.7307 19.7861 15.7307C19.7861 16.7307 19.4361 17.5807 18.7361 18.2807C18.0361 18.9807 17.1861 19.3307 16.1861 19.3307ZM16.1861 25.7307C12.9417 25.7307 9.98614 24.8252 7.31947 23.014C4.6528 21.2029 2.71947 18.7752 1.51947 15.7307C2.71947 12.6863 4.6528 10.2585 7.31947 8.44738C9.98614 6.63627 12.9417 5.73071 16.1861 5.73071C19.4306 5.73071 22.3861 6.63627 25.0528 8.44738C27.7195 10.2585 29.6528 12.6863 30.8528 15.7307C29.6528 18.7752 27.7195 21.2029 25.0528 23.014C22.3861 24.8252 19.4306 25.7307 16.1861 25.7307ZM16.1861 23.064C18.6972 23.064 21.0028 22.4029 23.1028 21.0807C25.2028 19.7585 26.8084 17.9752 27.9195 15.7307C26.8084 13.4863 25.2028 11.7029 23.1028 10.3807C21.0028 9.05849 18.6972 8.39738 16.1861 8.39738C13.675 8.39738 11.3695 9.05849 9.26947 10.3807C7.16947 11.7029 5.56391 13.4863 4.4528 15.7307C5.56391 17.9752 7.16947 19.7585 9.26947 21.0807C11.3695 22.4029 13.675 23.064 16.1861 23.064Z" fill="#1C1B1F"/>
</g>
</svg>
