<svg width="33" height="33" viewBox="0 0 33 33" fill="none" xmlns="http://www.w3.org/2000/svg">
<mask id="mask0_116_7" style="mask-type:alpha" maskUnits="userSpaceOnUse" x="0" y="0" width="33" height="33">
<rect x="0.830811" y="0.178955" width="32" height="32" fill="#D9D9D9"/>
</mask>
<g mask="url(#mask0_116_7)">
<path d="M26.9641 28.179L18.5641 19.779C17.8975 20.3123 17.1308 20.7345 16.2641 21.0456C15.3975 21.3567 14.4753 21.5123 13.4975 21.5123C11.0753 21.5123 9.02526 20.6734 7.34748 18.9956C5.6697 17.3178 4.83081 15.2678 4.83081 12.8456C4.83081 10.4234 5.6697 8.3734 7.34748 6.69562C9.02526 5.01784 11.0753 4.17896 13.4975 4.17896C15.9197 4.17896 17.9697 5.01784 19.6475 6.69562C21.3253 8.3734 22.1641 10.4234 22.1641 12.8456C22.1641 13.8234 22.0086 14.7456 21.6975 15.6123C21.3864 16.479 20.9641 17.2456 20.4308 17.9123L28.8308 26.3123L26.9641 28.179ZM13.4975 18.8456C15.1641 18.8456 16.5808 18.2623 17.7475 17.0956C18.9141 15.929 19.4975 14.5123 19.4975 12.8456C19.4975 11.179 18.9141 9.76229 17.7475 8.59562C16.5808 7.42896 15.1641 6.84562 13.4975 6.84562C11.8308 6.84562 10.4141 7.42896 9.24748 8.59562C8.08081 9.76229 7.49748 11.179 7.49748 12.8456C7.49748 14.5123 8.08081 15.929 9.24748 17.0956C10.4141 18.2623 11.8308 18.8456 13.4975 18.8456ZM12.1641 16.8456V14.179H9.49748V11.5123H12.1641V8.84562H14.8308V11.5123H17.4975V14.179H14.8308V16.8456H12.1641Z" fill="black"/>
</g>
</svg>
